<svg xmlns="http://www.w3.org/2000/svg" xmlns:xlink="http://www.w3.org/1999/xlink" version="1.1" x="0px" y="0px" viewBox="0 0 100 100" enable-background="new 0 0 100 100" xml:space="preserve"><path d="M50,5C25.1,5,5,25.1,5,50c0,24.9,20.1,45,45,45c24.9,0,45-20.1,45-45C95,25.1,74.9,5,50,5L50,5z M73.9,55.6H55.6v18.2  c0,3.1-2.5,5.6-5.6,5.6c-3.1,0-5.6-2.5-5.6-5.6V55.6H26.1c-3.1,0-5.6-2.5-5.6-5.6s2.5-5.6,5.6-5.6h18.2V26.1c0-3.1,2.5-5.6,5.6-5.6  c3.1,0,5.6,2.5,5.6,5.6v18.2h18.2c3.1,0,5.6,2.5,5.6,5.6S77,55.6,73.9,55.6z"/></svg>